<svg width="133" height="133" viewBox="0 0 133 133" fill="none" xmlns="http://www.w3.org/2000/svg">
<path fill-rule="evenodd" clip-rule="evenodd" d="M97.5775 116.375L83.8674 43.2804L22.1665 48.8886V98.6416C22.1665 104.848 22.1665 107.952 23.3746 110.323C24.4372 112.409 26.1326 114.104 28.218 115.167C30.5898 116.375 33.6932 116.375 39.8998 116.375H97.5775ZM74.8123 83.2912C74.8123 95.2501 62.9532 103.651 57.7828 106.749C57.068 107.178 56.2501 107.404 55.4165 107.404C54.5829 107.404 53.765 107.178 53.0502 106.749C47.8798 103.651 36.0207 95.2501 36.0207 83.2857C36.0207 71.554 45.4193 63.7291 55.4165 63.7291C65.7628 63.7291 74.8123 71.554 74.8123 83.2912Z" fill="#8D21E1"/>
<path d="M23.3746 22.6765C22.1665 25.0483 22.1665 28.1517 22.1665 34.3583V37.7609L121.861 28.6948C121.756 25.9904 121.473 24.1838 120.708 22.6765C119.646 20.5911 117.95 18.8957 115.865 17.8331C113.493 16.625 110.39 16.625 104.183 16.625H39.8998C33.6932 16.625 30.5898 16.625 28.218 17.8331C26.1326 18.8957 24.4372 20.5911 23.3746 22.6765ZM121.917 39.8224L94.9563 42.2718L108.844 116.347C112.124 116.275 114.18 116.026 115.865 115.167C117.95 114.104 119.646 112.409 120.708 110.324C121.916 107.952 121.917 104.848 121.917 98.6417V39.8224Z" fill="#8D21E1"/>
<path d="M55.4167 88.6667C58.4772 88.6667 60.9583 86.1856 60.9583 83.125C60.9583 80.0645 58.4772 77.5834 55.4167 77.5834C52.3561 77.5834 49.875 80.0645 49.875 83.125C49.875 86.1856 52.3561 88.6667 55.4167 88.6667Z" fill="#8D21E1"/>
</svg>
