<svg width="111" height="111" viewBox="0 0 111 111" fill="none" xmlns="http://www.w3.org/2000/svg">
<path d="M83.25 27.75V13.875L55.5 0L27.75 13.875V20.8125L0 34.6875V69.375L83.25 111L111 97.125V41.625L83.25 27.75ZM27.75 75.48L6.9375 65.0738V42.18L27.75 52.7944V75.48ZM27.75 45.0244L11.5162 36.6994L27.75 28.5825V45.0244ZM55.5 89.355L34.6875 78.9488V21.2981L55.5 31.9819V89.355ZM39.2663 15.8869L55.5 7.77L71.7337 15.8869L55.5 24.2119L39.2663 15.8869ZM83.25 103.23L62.4375 92.8238V49.0481L83.25 59.7319V103.23ZM83.25 51.9619L67.0163 43.6369L83.25 35.52L99.4837 43.6369L83.25 51.9619Z" fill="#8D21E1"/>
</svg>
