<svg width="122" height="122" viewBox="0 0 122 122" fill="none" xmlns="http://www.w3.org/2000/svg">
<path d="M25.4167 45.75C28.113 45.75 30.699 44.6788 32.6056 42.7722C34.5122 40.8656 35.5833 38.2797 35.5833 35.5833C35.5833 32.8869 34.5122 30.301 32.6056 28.3944C30.699 26.4878 28.113 25.4166 25.4167 25.4166C22.7203 25.4166 20.1344 26.4878 18.2277 28.3944C16.3211 30.301 15.25 32.8869 15.25 35.5833C15.25 38.2797 16.3211 40.8656 18.2277 42.7722C20.1344 44.6788 22.7203 45.75 25.4167 45.75ZM25.4167 45.75V50.8333M25.4167 86.4166V81.3333" stroke="#8D21E1" stroke-width="2" stroke-linecap="round" stroke-linejoin="round"/>
<path d="M35.5833 96.5833C35.5833 93.8869 34.5122 91.301 32.6056 89.3944C30.699 87.4878 28.113 86.4166 25.4167 86.4166C22.7203 86.4166 20.1344 87.4878 18.2277 89.3944C16.3211 91.301 15.25 93.8869 15.25 96.5833C15.25 99.2797 16.3211 101.866 18.2277 103.772C20.1344 105.679 22.7203 106.75 25.4167 106.75C28.113 106.75 30.699 105.679 32.6056 103.772C34.5122 101.866 35.5833 99.2797 35.5833 96.5833Z" fill="#8D21E1"/>
<path d="M35.5833 96.5833C35.5833 93.8869 34.5122 91.301 32.6056 89.3943C30.699 87.4877 28.113 86.4166 25.4167 86.4166C22.7203 86.4166 20.1344 87.4877 18.2277 89.3943C16.3211 91.301 15.25 93.8869 15.25 96.5833C15.25 99.2796 16.3211 101.866 18.2277 103.772C20.1344 105.679 22.7203 106.75 25.4167 106.75C28.113 106.75 30.699 105.679 32.6056 103.772C34.5122 101.866 35.5833 99.2796 35.5833 96.5833ZM35.5833 96.5833H40.6667M86.4167 86.4166C88.4274 86.4166 90.3931 87.0129 92.065 88.13C93.7369 89.2471 95.0399 90.8349 95.8094 92.6926C96.5789 94.5503 96.7803 96.5945 96.388 98.5667C95.9957 100.539 95.0274 102.35 93.6056 103.772C92.1837 105.194 90.3722 106.162 88.4001 106.555C86.4279 106.947 84.3838 106.746 82.526 105.976C80.6683 105.207 79.0805 103.903 77.9634 102.232C76.8463 100.56 76.25 98.594 76.25 96.5833M86.4167 86.4166C83.7203 86.4166 81.1344 87.4877 79.2277 89.3943C77.3211 91.301 76.25 93.8869 76.25 96.5833M86.4167 86.4166V81.3333M76.25 96.5833H71.1667" stroke="#8D21E1" stroke-width="2" stroke-linecap="round" stroke-linejoin="round"/>
<path d="M25.4168 71.1667C28.2243 71.1667 30.5002 68.8908 30.5002 66.0833C30.5002 63.2759 28.2243 61 25.4168 61C22.6094 61 20.3335 63.2759 20.3335 66.0833C20.3335 68.8908 22.6094 71.1667 25.4168 71.1667Z" fill="#8D21E1"/>
<path d="M55.9168 101.667C58.7243 101.667 61.0002 99.3908 61.0002 96.5833C61.0002 93.7759 58.7243 91.5 55.9168 91.5C53.1094 91.5 50.8335 93.7759 50.8335 96.5833C50.8335 99.3908 53.1094 101.667 55.9168 101.667Z" fill="#8D21E1"/>
<path fill-rule="evenodd" clip-rule="evenodd" d="M86.4167 66.0833L83.1278 69.9619L83.1227 69.9517L83.1023 69.9415L83.0515 69.8907L82.8532 69.723L82.1568 69.1079C78.6834 65.9921 75.418 62.652 72.3816 59.109C69.7128 55.9725 66.9323 52.282 64.8023 48.3882C62.7029 44.5605 61 40.1176 61 35.5833C61 27.7194 63.7348 21.2229 68.5742 16.719C73.3576 12.266 79.7575 10.1666 86.4167 10.1666C93.0758 10.1666 99.4757 12.266 104.259 16.719C109.098 21.2229 111.833 27.7194 111.833 35.5833C111.833 40.1176 110.13 44.5605 108.031 48.3933C105.896 52.282 103.126 55.9725 100.457 59.109C97.2163 62.8869 93.7155 66.4335 89.9801 69.723L89.7869 69.8907L89.731 69.9415L89.7107 69.9517V69.9568H89.7056L86.4167 66.0833ZM86.4167 66.0833L89.7005 69.9619C88.7826 70.7387 87.6191 71.1649 86.4167 71.1649C85.2142 71.1649 84.0456 70.7387 83.1278 69.9619L86.4167 66.0833ZM86.4167 40.6666C87.7648 40.6666 89.0578 40.1311 90.0111 39.1777C90.9644 38.2244 91.5 36.9315 91.5 35.5833C91.5 34.2351 90.9644 32.9421 90.0111 31.9888C89.0578 31.0355 87.7648 30.5 86.4167 30.5C85.0685 30.5 83.7755 31.0355 82.8222 31.9888C81.8689 32.9421 81.3333 34.2351 81.3333 35.5833C81.3333 36.9315 81.8689 38.2244 82.8222 39.1777C83.7755 40.1311 85.0685 40.6666 86.4167 40.6666Z" fill="#8D21E1"/>
</svg>
