<svg width="1740" height="530" viewBox="0 0 1740 530" fill="none" xmlns="http://www.w3.org/2000/svg">
<path fill-rule="evenodd" clip-rule="evenodd" d="M-25 71.67L79.6667 58.9386C184.333 46.2072 393.667 20.7445 603 84.4014C812.333 148.058 1021.67 300.835 1231 275.372C1440.33 249.909 1649.67 46.2072 1859 8.01308C2068.33 -30.1811 2277.67 97.1328 2382.33 160.79L2487 224.447V530H2382.33C2277.67 530 2068.33 530 1859 530C1649.67 530 1440.33 530 1231 530C1021.67 530 812.333 530 603 530C393.667 530 184.333 530 79.6667 530H-25V71.67Z" fill="#FBF6FF" fill-opacity="0.41" stroke="#793FAF"/>
</svg>
