<svg width="1920" height="875" viewBox="0 0 1920 875" fill="none" xmlns="http://www.w3.org/2000/svg">
<path fill-rule="evenodd" clip-rule="evenodd" d="M2761.2 89.4452L2643.49 141.283C2525.79 193.122 2290.38 296.799 2054.97 400.475C1819.57 504.152 1584.16 607.829 1350.73 525.706C1117.3 443.584 885.847 175.663 652.7 66.998C419.553 -41.667 184.711 8.92421 67.2898 34.2198L-50.1316 59.5156L-61.9998 1174.31L55.1391 1175.56C172.278 1176.8 406.555 1179.3 640.832 1181.79C875.109 1184.29 1109.39 1186.78 1343.66 1189.27C1577.94 1191.77 1812.22 1194.26 2046.5 1196.76C2280.77 1199.25 2515.05 1201.75 2632.19 1202.99L2749.33 1204.24L2761.2 89.4452Z" fill="url(#paint0_linear_136_190)" fill-opacity="0.53"/>
<defs>
<linearGradient id="paint0_linear_136_190" x1="2755.6" y1="615.084" x2="-55.7276" y2="585.155" gradientUnits="userSpaceOnUse">
<stop stop-color="#6F35A6"/>
<stop offset="1" stop-color="#CE94FA"/>
</linearGradient>
</defs>
</svg>
