<svg width="1920" height="674" viewBox="0 0 1920 674" fill="none" xmlns="http://www.w3.org/2000/svg">
<path fill-rule="evenodd" clip-rule="evenodd" d="M-104 107.205L0.666664 88.0722C105.333 68.939 314.667 30.6727 524 126.339C733.333 222.005 942.667 451.603 1152 413.336C1361.33 375.07 1570.67 68.939 1780 11.5395C1989.33 -45.86 2198.67 145.472 2303.33 241.138L2408 336.804V796H2303.33C2198.67 796 1989.33 796 1780 796C1570.67 796 1361.33 796 1152 796C942.667 796 733.333 796 524 796C314.667 796 105.333 796 0.666664 796H-104V107.205Z" fill="#FBF6FF" fill-opacity="0.2" stroke="#793FAF"/>
</svg>
