<svg width="144" height="144" viewBox="0 0 144 144" fill="none" xmlns="http://www.w3.org/2000/svg">
<path d="M0 30.4228V113.577C0.00144 116.198 2.71584 117.94 5.09904 116.849C5.09904 116.849 10.0742 114.539 21.0888 112.101C32.1034 109.663 48.9384 107.198 72 107.198C95.0616 107.198 111.897 109.663 122.911 112.101C133.927 114.539 138.901 116.849 138.901 116.849C141.284 117.939 143.999 116.199 144 113.577V30.4228C143.999 27.8452 141.369 26.1057 138.996 27.1108C138.996 27.1108 116.322 36.802 72 36.802C27.6782 36.802 5.004 27.1108 5.004 27.1108C2.57328 26.2411 0.0576 28.4832 0 30.4214M7.2 35.4671C16.4016 38.386 38.3659 44.0006 72 44.0006C105.634 44.0006 127.598 38.386 136.8 35.4671V99.4406C125.313 99.7689 113.501 98.6342 100.812 93.551L74.5848 64.2297L52.439 82.8115L41.7485 75.6835L20.736 97.9804C16.3915 99.9244 12.2069 102.349 7.2 102.306V35.4671ZM108.058 53.9654C105.515 54.0002 103.089 55.0343 101.303 56.844C99.5165 58.6538 98.5146 61.0938 98.5133 63.6364C98.5129 65.5554 99.0832 67.4312 100.152 69.0251C101.22 70.6191 102.739 71.8592 104.514 72.5879C106.289 73.3165 108.241 73.5007 110.121 73.117C112.002 72.7333 113.725 71.7991 115.073 70.4331C116.421 69.0672 117.332 67.3312 117.691 65.446C118.049 63.5609 117.839 61.6116 117.087 59.8462C116.335 58.0808 115.074 56.579 113.466 55.5319C111.858 54.4847 109.976 53.9394 108.058 53.9654Z" fill="#8D21E1"/>
</svg>
