<svg width="87" height="43" viewBox="0 0 87 43" fill="none" xmlns="http://www.w3.org/2000/svg">
<path d="M42.4827 33.2023C42.4827 30.6599 42.4724 28.1149 42.4853 25.5725C42.5009 22.8527 41.9756 20.2435 40.7284 17.8296C39.181 14.8399 36.9557 12.4414 33.9697 10.791C28.7583 7.91187 23.3943 7.75506 18.038 10.2152C13.2459 12.4157 10.0632 16.079 8.87288 21.2795C8.68917 22.0841 8.67882 22.9324 8.64259 23.7653C8.59084 24.9812 8.5779 26.2023 8.5779 27.4183C8.5779 27.9375 8.38125 28.1329 7.84562 28.1252C5.4987 28.0866 3.15178 28.0764 0.804862 28.0686C0.333925 28.0686 -0.00763301 27.971 0.000129681 27.4131C0.0363556 24.7447 -0.129248 22.0661 0.432253 19.426C1.4207 14.7756 3.67188 10.8219 7.07194 7.49285C9.41369 5.20237 12.0866 3.37718 15.1193 2.13811C19.3603 0.405463 23.7566 -0.38888 28.3702 0.184384C32.8648 0.742223 36.9609 2.27178 40.6275 4.89903C43.4712 6.93758 45.769 9.49799 47.601 12.4594C47.9166 12.9684 48.1185 12.9684 48.504 12.5674C50.7086 10.2846 53.2755 8.51856 56.2434 7.35918C60.5931 5.65995 65.0463 5.29234 69.6056 6.42345C74.936 7.74735 79.2236 10.6188 82.4114 15.0404C85.0119 18.6471 86.3601 22.7088 86.4041 27.1535C86.4299 29.7807 86.3213 32.4105 86.2902 35.0404C86.285 35.5442 86.1272 35.7936 85.5838 35.7833C83.1515 35.7447 80.7192 35.7164 78.2869 35.6984C77.7383 35.6933 77.671 35.3848 77.6788 34.9427C77.7254 32.5288 77.7512 30.1123 77.7926 27.6985C77.8832 22.3926 74.8273 17.6085 69.9368 15.4723C66.0296 13.7653 62.0784 13.8245 58.3393 15.7782C53.9327 18.0789 51.3788 21.7987 51.1847 26.8167C50.9932 31.791 51.0165 36.7756 50.9467 41.755C50.9337 42.6907 50.8975 42.7241 49.9479 42.7113C47.7096 42.6856 45.4714 42.6547 43.2306 42.6265C42.3534 42.6162 42.299 42.5622 42.299 41.665C42.299 38.8424 42.299 25.8476 42.299 23.0275C42.299 21.2975 42.4232 33.2023 42.4853 33.2023H42.4827Z" fill="#8D21E1"/>
</svg>
